<svg xmlns="http://www.w3.org/2000/svg" viewBox="0 0 113 113"><defs><style>.cls-1{fill:#089400;}.cls-2{fill:#10bf00;}.cls-3{fill:#fff;}.cls-4{fill:#050505;}</style></defs><title>Asset 1</title><g id="Layer_2" data-name="Layer 2"><g id="Layer_1-2" data-name="Layer 1"><rect class="cls-1" x="0.5" y="0.5" width="112" height="112"/><path class="cls-2" d="M112,1V112H1V1H112m1-1H0V113H113V0Z"/><ellipse class="cls-3" cx="52.5" cy="56.5" rx="43" ry="50"/><path d="M52.5,7C75.93,7,95,29.21,95,56.5S75.93,106,52.5,106,10,83.79,10,56.5,29.07,7,52.5,7m0-1C28.48,6,9,28.61,9,56.5S28.48,107,52.5,107,96,84.39,96,56.5,76.52,6,52.5,6Z"/><ellipse class="cls-4" cx="34.5" cy="56.5" rx="17" ry="22"/><path d="M34.5,35C43.6,35,51,44.64,51,56.5S43.6,78,34.5,78,18,68.36,18,56.5,25.4,35,34.5,35m0-1C24.84,34,17,44.07,17,56.5S24.84,79,34.5,79,52,68.93,52,56.5,44.16,34,34.5,34Z"/></g></g></svg>